<svg width="512" height="512" xmlns="http://www.w3.org/2000/svg">

 <g>
  <title>background</title>
  <rect fill="none" id="canvas_background" height="402" width="582" y="-1" x="-1"/>
 </g>
 <g>
  <title>Layer 1</title>
  <g fill="white" id="svg_1">
   <g id="svg_2">
    <g id="svg_3">
     <path id="svg_4" d="m501.145,460.708l-102.818,0c2.352,-4.938 3.673,-10.459 3.673,-16.283c0,-6.225 -1.515,-12.1 -4.18,-17.292l42.716,0c5.995,0 10.855,-4.861 10.855,-10.855l0,-43.42c0,-5.994 -4.86,-10.855 -10.855,-10.855l-8.077,0c3.463,-23.904 28.331,-195.392 28.331,-195.392l21.177,0c5.995,0 10.855,-4.861 10.855,-10.855s-4.86,-10.855 -10.855,-10.855l-34.341,0l-104.412,-105.848c-6.026,-6.109 -14.07,-9.473 -22.651,-9.473c-8.581,0 -16.625,3.364 -22.651,9.473l-41.95,42.526c-11.095,-4.268 -24.116,-2.107 -33.26,6.485l-28.234,26.534l-24.882,-17.681c-11.023,-7.832 -25.835,-7.833 -36.86,0.001l-67.526,47.984l-35.167,0c-5.995,0 -10.855,4.861 -10.855,10.855s4.86,10.855 10.855,10.855l21.185,0c3.614,24.943 28.331,195.392 28.331,195.392l-8.085,0c-5.995,0 -10.855,4.861 -10.855,10.855l0,43.42c0,5.994 4.86,10.855 10.855,10.855l42.716,0c-2.666,5.191 -4.18,11.066 -4.18,17.292c0,5.824 1.321,11.345 3.673,16.283l-102.818,0c-5.995,0.001 -10.855,4.861 -10.855,10.856s4.86,10.855 10.855,10.855l490.29,0c5.995,0 10.855,-4.861 10.855,-10.855s-4.861,-10.857 -10.855,-10.857zm-187.777,-406.409c1.914,-1.94 4.469,-3.008 7.195,-3.008s5.281,1.068 7.195,3.008l88.793,90.014l-90.417,0l-52.703,-49.529l39.937,-40.485zm-75.798,49.586c3.881,-3.645 9.962,-3.647 13.842,0l43.019,40.429l-99.882,0l43.021,-40.429zm-92.267,10.73c3.502,-2.487 8.208,-2.487 11.708,0l21.318,15.149l-15.483,14.55l-59.338,0l41.795,-29.699zm-72.151,51.996l365.701,0l-9.052,62.417l-347.594,0c-3.02,-20.805 -6.04,-41.612 -9.055,-62.417zm283.257,132.975l63.164,0c-3.02,20.805 -6.041,41.612 -9.054,62.417l-309.033,0l-9.052,-62.417l140.172,0c5.995,0 10.855,-4.861 10.855,-10.855s-4.86,-10.855 -10.855,-10.855l-143.32,0c-1.312,-9.046 -2.623,-18.091 -3.932,-27.138l341.296,0c-1.312,9.046 -2.622,18.092 -3.931,27.138l-66.31,0c-5.995,0 -10.855,4.861 -10.855,10.855s4.86,10.855 10.855,10.855zm-274.091,105.837l0,-21.71l347.364,0l0,21.71l-347.364,0zm65.673,55.285c-8.978,0 -16.283,-7.304 -16.283,-16.283c0,-8.978 7.304,-16.283 16.283,-16.283s16.283,7.304 16.283,16.283s-7.305,16.283 -16.283,16.283zm181.697,0l-147.377,0c2.352,-4.938 3.673,-10.459 3.673,-16.283c0,-6.225 -1.515,-12.1 -4.18,-17.292l148.392,0c-2.666,5.191 -4.18,11.066 -4.18,17.292c-0.001,5.825 1.32,11.345 3.672,16.283zm34.32,0c-8.978,0 -16.283,-7.304 -16.283,-16.283c0,-8.978 7.304,-16.283 16.283,-16.283s16.283,7.304 16.283,16.283s-7.305,16.283 -16.283,16.283z"/>
     <path id="svg_5" d="m293.992,277.876l-1.086,0c-5.995,0 -10.855,4.861 -10.855,10.855s4.86,10.855 10.855,10.855l1.086,0c5.995,0 10.855,-4.861 10.855,-10.855s-4.859,-10.855 -10.855,-10.855z"/>
    </g>
   </g>
  </g>
  <g id="svg_6"/>
  <g id="svg_7"/>
  <g id="svg_8"/>
  <g id="svg_9"/>
  <g id="svg_10"/>
  <g id="svg_11"/>
  <g id="svg_12"/>
  <g id="svg_13"/>
  <g id="svg_14"/>
  <g id="svg_15"/>
  <g id="svg_16"/>
  <g id="svg_17"/>
  <g id="svg_18"/>
  <g id="svg_19"/>
  <g id="svg_20"/>
 </g>
</svg>