<svg width="486.926" height="486.926" xmlns="http://www.w3.org/2000/svg">

 <g>
  <title>background</title>
  <rect fill="none" id="canvas_background" height="478.518" width="478.518" y="-1" x="-1"/>
 </g>
 <g>
  <title>Layer 1</title>
  <g fill="white" id="svg_1">
   <path id="svg_2" d="m462.8,181.564c-12.3,-10.5 -27.7,-16.2 -43.3,-16.2l-15.8,0l-56.9,0l-32.4,0l0,-75.9c0,-31.9 -9.3,-54.9 -27.7,-68.4c-29.1,-21.4 -69.2,-9.2 -70.9,-8.6c-5,1.6 -8.4,6.2 -8.4,11.4l0,84.9c0,27.7 -13.2,51.2 -39.3,69.9c-19.5,14 -39.4,20.1 -41.5,20.8l-2.9,0.7c-4.3,-7.3 -12.2,-12.2 -21.3,-12.2l-77.7,0c-13.6,0 -24.7,11.1 -24.7,24.7l0,228.4c0,13.6 11.1,24.7 24.7,24.7l77.9,0c7.6,0 14.5,-3.5 19,-8.9c12.5,13.3 30.2,21.6 49.4,21.6l65.9,0l6.8,0l135.1,0c45.9,0 75.2,-24 80.4,-66l26.9,-166.9c3.7,-24 -5.2,-48.6 -23.3,-64zm-359.6,259.5c0,0.4 -0.3,0.7 -0.7,0.7l-77.8,0c-0.4,0 -0.7,-0.3 -0.7,-0.7l0,-228.4c0,-0.4 0.3,-0.7 0.7,-0.7l77.9,0c0.4,0 0.7,0.3 0.7,0.7l0,228.4l-0.1,0zm359,-199.3l-26.8,167.2c0,0.1 0,0.3 -0.1,0.5c-3.7,29.9 -22.7,45.1 -56.6,45.1l-135.1,0l-6.8,0l-65.9,0c-21.3,0 -39.8,-15.9 -43.1,-36.9c-0.1,-0.7 -0.3,-1.4 -0.5,-2.1l0,-191.6l5.2,-1.2c0.2,0 0.3,-0.1 0.5,-0.1c1,-0.3 24.7,-7 48.6,-24c32.7,-23.2 49.9,-54.3 49.9,-89.9l0,-75.3c10.4,-1.7 28.2,-2.6 41.1,7c11.8,8.7 17.8,25.2 17.8,49l0,87.8c0,6.6 5.4,12 12,12l44.4,0l56.9,0l15.8,0c9.9,0 19.8,3.7 27.7,10.5c11.8,10.1 17.6,26.2 15,42z"/>
  </g>
  <g id="svg_3"/>
  <g id="svg_4"/>
  <g id="svg_5"/>
  <g id="svg_6"/>
  <g id="svg_7"/>
  <g id="svg_8"/>
  <g id="svg_9"/>
  <g id="svg_10"/>
  <g id="svg_11"/>
  <g id="svg_12"/>
  <g id="svg_13"/>
  <g id="svg_14"/>
  <g id="svg_15"/>
  <g id="svg_16"/>
  <g id="svg_17"/>
 </g>
</svg>