<?xml version="1.0" encoding="iso-8859-1"?>
<!-- Generator: Adobe Illustrator 19.0.0, SVG Export Plug-In . SVG Version: 6.00 Build 0)  -->
<svg version="1.1" id="Capa_1" xmlns="http://www.w3.org/2000/svg" xmlns:xlink="http://www.w3.org/1999/xlink" x="0px" y="0px"
	 viewBox="0 0 503.701 503.701" style="enable-background:new 0 0 503.701 503.701;" xml:space="preserve">
<g>
	<g>
		<path d="M457.491,75.635h-30.216c3.357-5.036,5.036-10.911,5.036-16.787c0-18.466-15.108-33.574-33.574-33.574h-34.413
			c-1.679-5.875-4.197-11.751-9.233-15.948c-11.751-10.911-30.216-9.233-31.895-9.233h-67.148c-18.466,0-32.734,4.197-41.967,13.43
			c-4.197,4.197-5.875,8.393-7.554,11.751h-34.413c-24.341,0-36.092,14.269-40.289,25.18c-62.111,5.875-76.38,87.292-77.22,91.489
			c-0.839,4.197,2.518,8.393,6.715,9.233c0.839,0,0.839,0,1.679,0c4.197,0,7.554-2.518,8.393-6.715
			c0-0.839,13.43-77.22,67.148-77.22c4.197,0,7.554-3.357,8.393-7.554c0-0.839,2.518-17.626,25.18-17.626h41.967
			c2.518,0,4.197-0.839,5.875-2.518c1.679-1.679,2.518-3.357,2.518-5.875c0,0,0-4.197,4.197-8.393
			c5.036-5.875,15.948-8.393,29.377-8.393h67.987c3.357,0,14.269,0,20.144,5.036c2.518,3.357,4.197,6.715,4.197,11.751
			c0,5.036,3.357,8.393,8.393,8.393h41.967c9.233,0,16.787,7.554,16.787,16.787c0,9.233-7.554,16.787-16.787,16.787h-8.393h-25.18
			c-5.036,0-8.393,3.357-8.393,8.393s3.357,8.393,8.393,8.393h25.18h8.393h58.754c14.269,0,25.18,10.911,25.18,25.18
			s-10.911,25.18-25.18,25.18h-67.148c-5.036,0-8.393,3.357-8.393,8.393c0,18.466-15.108,33.574-33.574,33.574h-58.752
			c-18.466,0-33.574,15.108-33.574,33.574c0,5.036,3.357,8.393,8.393,8.393s8.393-3.357,8.393-8.393
			c0-9.233,7.554-16.787,16.787-16.787h58.754c25.18,0,45.325-18.466,49.521-41.967h59.593c23.502,0,41.967-18.466,41.967-41.967
			C499.458,94.101,480.993,75.635,457.491,75.635z"/>
	</g>
</g>
<g>
	<g>
		<path d="M348.376,125.996c-5.036,0-8.393,3.357-8.393,8.393c0,9.233-7.554,16.787-16.787,16.787c-5.036,0-8.393,4.197-8.393,8.393
			c0,5.036,3.357,8.393,8.393,8.393c18.466,0,33.574-15.108,33.574-33.574C356.77,129.353,353.412,125.996,348.376,125.996z"/>
	</g>
</g>
<g>
	<g>
		<path d="M256.048,92.422c-18.466,0-33.574,15.108-33.574,33.574c0,9.233-7.554,16.787-16.787,16.787
			c-5.036,0-8.393,3.357-8.393,8.393s3.357,8.393,8.393,8.393c18.466,0,33.574-15.108,33.574-33.574
			c0-9.233,7.554-16.787,16.787-16.787c5.036,0,8.393-3.357,8.393-8.393C264.441,95.779,261.085,92.422,256.048,92.422z"/>
	</g>
</g>
<g>
	<g>
		<path d="M323.196,84.028h-25.18c-5.036,0-8.393,3.357-8.393,8.393s3.357,8.393,8.393,8.393h25.18c5.036,0,8.393-3.357,8.393-8.393
			S328.232,84.028,323.196,84.028z"/>
	</g>
</g>
<g>
	<g>
		<path d="M222.475,58.848h-25.18c-5.036,0-8.393,3.357-8.393,8.393s3.357,8.393,8.393,8.393h25.18c5.036,0,8.393-3.357,8.393-8.393
			S227.511,58.848,222.475,58.848z"/>
	</g>
</g>
<g>
	<g>
		<path d="M298.016,42.061h-25.18c-5.036,0-8.393,3.357-8.393,8.393s3.357,8.393,8.393,8.393h25.18c5.036,0,8.393-3.357,8.393-8.393
			S303.052,42.061,298.016,42.061z"/>
	</g>
</g>
<g>
	<g>
		<path d="M398.737,109.209H381.95c-5.036,0-8.393,3.357-8.393,8.393c0,5.036,3.357,8.393,8.393,8.393h16.787
			c5.036,0,8.393-3.357,8.393-8.393C407.13,112.566,403.773,109.209,398.737,109.209z"/>
	</g>
</g>
<g>
	<g>
		<path d="M163.721,92.422c-23.502,0-41.967,19.305-41.967,41.967c0,5.036,3.357,8.393,8.393,8.393s8.393-3.357,8.393-8.393
			c0-14.269,10.911-25.18,25.18-25.18c5.036,0,8.393-3.357,8.393-8.393S168.757,92.422,163.721,92.422z"/>
	</g>
</g>
<g>
	<g>
		<path d="M158.685,344.225L113.36,389.55c5.036,3.357,10.911,5.036,16.787,5.036c18.466,0,33.574-15.108,33.574-33.574
			C163.721,355.137,162.042,349.261,158.685,344.225z"/>
	</g>
</g>
<g>
	<g>
		<path d="M130.147,327.438c-18.466,0-33.574,15.108-33.574,33.574c0,5.875,1.679,11.751,5.036,16.787l45.325-45.325
			C141.898,329.117,136.022,327.438,130.147,327.438z"/>
	</g>
</g>
<g>
	<g>
		<rect x="281.232" y="369.401" width="33.574" height="16.787"/>
	</g>
</g>
<g>
	<g>
		<rect x="289.622" y="444.941" width="16.787" height="58.754"/>
	</g>
</g>
<g>
	<g>
		<rect x="415.522" y="444.941" width="16.787" height="58.754"/>
	</g>
</g>
<g>
	<g>
		<rect x="415.522" y="369.401" width="16.787" height="16.787"/>
	</g>
</g>
<g>
	<g>
		<path d="M323.196,319.045v-58.754c0-5.036-3.357-8.393-8.393-8.393h-50.361c-5.036,0-8.393,3.357-8.393,8.393v58.754H215.76
			l-10.072-34.413v-66.308c0-21.823-37.77-33.574-75.541-33.574s-75.541,11.751-75.541,33.574v66.308L4.245,459.215v0.839
			c0,0.839,0,1.679,0,1.679v33.574c0,5.036,3.357,8.393,8.393,8.393h235.016h25.18v-67.148c0-5.036,3.357-8.393,8.393-8.393h33.574
			c5.036,0,8.393,3.357,8.393,8.393V503.7h33.574V319.045H323.196z M130.147,201.537c37.771,0,58.754,11.751,58.754,16.787
			s-20.984,16.787-58.754,16.787s-58.754-11.751-58.754-16.787S92.376,201.537,130.147,201.537z M180.508,361.012
			c0,27.698-22.662,50.361-50.361,50.361c-27.699,0-50.361-22.662-50.361-50.361c0-27.699,22.662-50.361,50.361-50.361
			C157.846,310.651,180.508,333.314,180.508,361.012z M239.262,486.914H21.032v-16.787h218.23V486.914z M272.835,268.684h33.574
			v50.361h-33.574V268.684z M331.589,394.586c0,5.036-3.357,8.393-8.393,8.393h-50.361c-5.036,0-8.393-3.357-8.393-8.393v-33.574
			c0-5.036,3.357-8.393,8.393-8.393h50.361c5.036,0,8.393,3.357,8.393,8.393V394.586z"/>
	</g>
</g>
<g>
	<g>
		<path d="M482.671,319.045h-25.18v-58.754c0-5.036-3.357-8.393-8.393-8.393h-50.361c-5.036,0-8.393,3.357-8.393,8.393v58.754
			h-16.787v184.656h25.18v-67.148c0-5.036,3.357-8.393,8.393-8.393h33.574c5.036,0,8.393,3.357,8.393,8.393v67.148h33.574
			c5.036,0,8.393-3.357,8.393-8.393v-167.87C491.065,323.241,487.707,319.045,482.671,319.045z M407.13,268.684h33.574v50.361
			H407.13V268.684z M449.098,394.586c0,5.036-3.357,8.393-8.393,8.393h-33.574c-5.036,0-8.393-3.357-8.393-8.393v-33.574
			c0-5.036,3.357-8.393,8.393-8.393h33.574c5.036,0,8.393,3.357,8.393,8.393V394.586z"/>
	</g>
</g>
<g>
</g>
<g>
</g>
<g>
</g>
<g>
</g>
<g>
</g>
<g>
</g>
<g>
</g>
<g>
</g>
<g>
</g>
<g>
</g>
<g>
</g>
<g>
</g>
<g>
</g>
<g>
</g>
<g>
</g>
</svg>
