<svg width="512" height="512" xmlns="http://www.w3.org/2000/svg">

 <g>
  <title>background</title>
  <rect fill="none" id="canvas_background" height="514" width="514" y="-1" x="-1"/>
 </g>
 <g>
  <title>Layer 1</title>
  <g fill="#030104" stroke="null" id="svg_1">
   <path stroke="null" id="svg_2" fill="#ffffff" d="m48.75094,161.392792c48.868271,-46.689758 87.471743,-83.602175 192.200653,-17.762273c50.311496,31.622322 90.895207,43.559266 124.682335,43.553042c59.155444,0 97.479222,-36.613682 130.628646,-68.304464c11.819901,-11.289685 13.341441,-31.336034 3.395495,-44.772876s-27.589092,-15.173238 -39.408993,-3.864881c-48.862677,46.708429 -87.460555,83.608399 -192.223029,17.756049c-138.387379,-86.975389 -203.203846,-25.019038 -255.288606,24.751422c-11.814307,11.295909 -13.341441,31.342258 -3.395495,44.7791c9.940352,13.430618 27.583498,15.167014 39.408993,3.864881zm411.498136,67.763008c-48.862677,46.695981 -87.460555,83.602175 -192.223029,17.756049c-138.387379,-86.981612 -203.203846,-25.025262 -255.288606,24.751422c-11.814307,11.302133 -13.341441,31.348482 -3.395495,44.766653c9.940352,13.436842 27.589092,15.173238 39.408993,3.871105c48.868271,-46.695981 87.471743,-83.602175 192.200653,-17.768496c50.311496,31.622322 90.895207,43.56549 124.682335,43.56549c59.155444,0 97.479222,-36.619906 130.628646,-68.304464c11.819901,-11.302133 13.341441,-31.348482 3.395495,-44.772876c-9.940352,-13.449289 -27.583498,-15.173238 -39.408993,-3.864881zm0,158.895788c-48.862677,46.702205 -87.460555,83.602175 -192.223029,17.762273c-138.387379,-86.981612 -203.203846,-25.025262 -255.288606,24.751422c-11.814307,11.295909 -13.341441,31.348482 -3.395495,44.785323c9.940352,13.418171 27.589092,15.16079 39.408993,3.858658c48.868271,-46.708429 87.466149,-83.595951 192.200653,-17.77472c50.311496,31.634769 90.895207,43.56549 124.682335,43.56549c59.155444,0 97.479222,-36.619906 130.628646,-68.298241c11.819901,-11.295909 13.341441,-31.354705 3.395495,-44.785323c-9.945946,-13.430618 -27.583498,-15.154567 -39.408993,-3.864881z"/>
  </g>
  <g id="svg_3"/>
  <g id="svg_4"/>
  <g id="svg_5"/>
  <g id="svg_6"/>
  <g id="svg_7"/>
  <g id="svg_8"/>
  <g id="svg_9"/>
  <g id="svg_10"/>
  <g id="svg_11"/>
  <g id="svg_12"/>
  <g id="svg_13"/>
  <g id="svg_14"/>
  <g id="svg_15"/>
  <g id="svg_16"/>
  <g id="svg_17"/>
 </g>
</svg>