<svg width="481.882" height="481.882" xmlns="http://www.w3.org/2000/svg">

 <g>
  <title>background</title>
  <rect fill="none" id="canvas_background" height="514.001" width="514.001" y="-1" x="-1"/>
 </g>
 <g>
  <title>Layer 1</title>
  <circle id="svg_1" fill="#ffffff" r="138.541" cy="240.941" cx="240.941"/>
  <g fill="#FCD462" id="svg_2">
   <path id="svg_3" fill="#ffffff" d="m306.598,118.664c6.024,19.275 10.24,39.755 10.842,60.838c3.614,83.727 -53.007,157.816 -126.494,190.344c15.661,6.024 32.527,9.638 49.995,9.638c76.499,0 138.541,-62.042 138.541,-138.541c0,-53.009 -29.515,-98.788 -72.884,-122.279z"/>
   <path id="svg_4" fill="#ffffff" d="m240.941,0c-11.445,0 -20.48,9.035 -20.48,20.48l0,33.732c0,11.445 9.035,20.48 20.48,20.48s20.48,-9.035 20.48,-20.48l0,-33.732c0,-11.445 -9.035,-20.48 -20.48,-20.48z"/>
   <path id="svg_5" fill="#ffffff" d="m240.941,407.191c-11.445,0 -20.48,9.035 -20.48,20.48l0,33.732c0,11.445 9.035,20.48 20.48,20.48s20.48,-9.035 20.48,-20.48l0,-33.732c0,-11.445 -9.035,-20.48 -20.48,-20.48z"/>
   <path id="svg_6" fill="#ffffff" d="m481.882,240.941c0,-11.445 -9.035,-20.48 -20.48,-20.48l-33.732,0c-11.445,0 -20.48,9.035 -20.48,20.48s9.035,20.48 20.48,20.48l33.732,0c11.445,0 20.48,-9.035 20.48,-20.48z"/>
   <path id="svg_7" fill="#ffffff" d="m74.692,240.941c0,-11.445 -9.035,-20.48 -20.48,-20.48l-33.732,0c-11.445,0 -20.48,9.035 -20.48,20.48s9.035,20.48 20.48,20.48l33.732,0c11.444,0 20.48,-9.035 20.48,-20.48z"/>
   <path id="svg_8" fill="#ffffff" d="m411.407,70.475c-7.831,-7.831 -21.082,-7.831 -28.913,0l-24.094,24.094c-7.831,7.831 -7.831,21.082 0,28.913c7.831,7.831 21.082,7.831 28.913,0l24.094,-24.094c7.831,-7.83 7.831,-21.082 0,-28.913z"/>
   <path id="svg_9" fill="#ffffff" d="m123.482,358.4c-7.831,-7.831 -21.082,-7.831 -28.913,0l-24.094,24.094c-7.831,7.831 -7.831,21.082 0,28.913c7.831,7.831 21.082,7.831 28.913,0l24.094,-24.094c7.831,-7.831 7.831,-20.48 0,-28.913z"/>
   <path id="svg_10" fill="#ffffff" d="m411.407,411.407c7.831,-7.831 7.831,-21.082 0,-28.913l-24.094,-24.094c-7.831,-7.831 -21.082,-7.831 -28.913,0c-7.831,7.831 -7.831,21.082 0,28.913l24.094,24.094c7.831,7.831 21.082,7.831 28.913,0z"/>
   <path id="svg_11" fill="#ffffff" d="m123.482,123.482c7.831,-7.831 7.831,-21.082 0,-28.913l-24.094,-24.094c-7.831,-7.831 -21.082,-7.831 -28.913,0s-7.831,21.082 0,28.913l24.094,24.094c7.831,7.831 20.48,7.831 28.913,0z"/>
  </g>
  <g id="svg_12"/>
  <g id="svg_13"/>
  <g id="svg_14"/>
  <g id="svg_15"/>
  <g id="svg_16"/>
  <g id="svg_17"/>
  <g id="svg_18"/>
  <g id="svg_19"/>
  <g id="svg_20"/>
  <g id="svg_21"/>
  <g id="svg_22"/>
  <g id="svg_23"/>
  <g id="svg_24"/>
  <g id="svg_25"/>
  <g id="svg_26"/>
 </g>
</svg>