<svg width="512.003" height="512.003" xmlns="http://www.w3.org/2000/svg">

 <g>
  <title>background</title>
  <rect fill="none" id="canvas_background" height="514.001" width="514.001" y="-1" x="-1"/>
 </g>
 <g>
  <title>Layer 1</title>
  <path id="svg_1" fill="#ffffff" d="m237.306,511.918c-45.06,0.081 -135.131,0.167 -180.187,-0.073c-56.647,-0.302 -58.921,-4.617 -32.38,-49.581l100.713,-167.078c27.372,-45.42 54.525,-90.965 82.011,-136.326c15.698,1.789 31.925,2.735 48.541,2.735c16.582,0 32.787,-0.943 48.461,-2.726l82.163,136.317c33.155,55.001 66.631,109.827 99.455,165.01c28.055,47.146 25.287,51.184 -28.632,51.649l-141.513,0l-78.632,0.073z"/>
  <path id="svg_2" fill="#ffffff" d="m457.451,511.844l-141.512,0l-65.703,0.061c15.29,-23.467 36.996,-56.708 52.073,-79.33c2.052,-3.081 2.243,-7.041 0.495,-10.305c-1.749,-3.263 -5.152,-5.3 -8.855,-5.3l-79.092,0.001c-2.833,-0.022 -8.812,-0.069 -13.216,-0.429c1.943,-3.453 4.727,-7.688 5.926,-9.511c5.279,-8.039 38.205,-57.478 57.352,-86.216l8.431,42.69c0.944,4.784 5.143,8.097 9.845,8.097c0.644,0 1.3,-0.062 1.956,-0.193c5.443,-1.074 8.984,-6.353 7.91,-11.793l-13.151,-66.581c-1.074,-5.439 -6.358,-8.979 -11.801,-7.905l-66.622,13.138c-5.444,1.073 -8.984,6.353 -7.91,11.793c1.074,5.441 6.359,8.983 11.8,7.906l42.941,-8.468c-19.14,28.729 -52.231,78.414 -57.549,86.513c-7.792,11.856 -14.521,22.096 -9.541,31.403c5.035,9.413 17.585,9.51 33.549,9.633l60.464,0c-16.616,25.168 -36.775,56.111 -48.997,74.887c-47.482,0.073 -127.506,0.13 -169.126,-0.091c-56.647,-0.302 -58.921,-4.617 -32.38,-49.581l100.713,-167.078c27.372,-45.42 54.525,-90.965 82.011,-136.326c15.698,1.789 31.925,2.735 48.541,2.735c16.582,0 32.787,-0.943 48.461,-2.726l82.163,136.317c33.155,55.001 66.631,109.827 99.455,165.009c28.056,47.148 25.288,51.186 -28.631,51.65z"/>
  <path id="svg_3" fill="#ffffff" d="m386.628,295.187l-82.162,-136.317c-7.727,0.879 -15.583,1.552 -23.55,2.01c12.314,38.914 94.563,298.813 98.681,311.351c3.82,11.629 6.081,33.606 -17.376,39.614l95.23,0c53.919,-0.464 56.687,-4.501 28.632,-51.649c-32.824,-55.183 -66.301,-110.008 -99.455,-165.009z"/>
  <path id="svg_4" fill="#ffffff" d="m457.451,511.844l-141.512,0l-65.703,0.061c15.29,-23.469 36.996,-56.708 52.073,-79.33c2.052,-3.081 2.243,-7.041 0.495,-10.303c-1.747,-3.262 -5.152,-5.3 -8.855,-5.3l-79.092,0c-2.833,-0.022 -8.812,-0.069 -13.216,-0.429c1.943,-3.453 4.727,-7.688 5.926,-9.511c5.279,-8.039 38.205,-57.478 57.352,-86.216l8.431,42.689c0.945,4.784 5.143,8.097 9.845,8.097c0.644,-0.001 1.3,-0.062 1.956,-0.191c5.443,-1.074 8.984,-6.353 7.91,-11.793l-13.151,-66.581c-1.074,-5.439 -6.358,-8.979 -11.801,-7.905l-66.621,13.138c-5.444,1.073 -8.986,6.353 -7.91,11.793c1.074,5.441 6.359,8.983 11.8,7.906l42.941,-8.468c-19.14,28.729 -52.231,78.414 -57.549,86.513c-7.792,11.856 -14.521,22.096 -9.542,31.403c5.035,9.413 17.585,9.51 33.549,9.633l60.464,0c-16.616,25.168 -36.774,56.111 -48.997,74.887c-47.482,0.073 -127.506,0.13 -169.126,-0.092c-56.647,-0.301 -58.921,-4.617 -32.38,-49.579l100.713,-167.078c7.978,-13.24 15.938,-26.49 23.894,-39.743l213.329,0l23.955,39.743c33.155,55.001 66.631,109.827 99.455,165.009c28.054,47.146 25.286,51.183 -28.633,51.647z"/>
  <path id="svg_5" fill="#ffffff" d="m386.628,295.187l-23.955,-39.743l-51.827,0c28.349,89.547 65.998,208.408 68.75,216.786c3.82,11.629 6.081,33.606 -17.376,39.614l95.23,0c53.919,-0.464 56.687,-4.501 28.632,-51.649c-32.823,-55.182 -66.3,-110.007 -99.454,-165.008z"/>
  <path id="svg_6" fill="#ffffff" d="m341.299,10.04c0,38.012 -24.036,49.89 -43.35,59.433c-18.674,9.227 -32.165,15.894 -32.165,41.436c0,5.545 -4.498,10.04 -10.045,10.04c-5.549,0 -10.045,-4.494 -10.045,-10.04c0,-38.013 24.036,-49.891 43.351,-59.434c18.672,-9.228 32.165,-15.894 32.165,-41.436c0,-5.545 4.497,-10.039 10.045,-10.039c5.547,0.001 10.044,4.496 10.044,10.04z"/>
  <g id="svg_7"/>
  <g id="svg_8"/>
  <g id="svg_9"/>
  <g id="svg_10"/>
  <g id="svg_11"/>
  <g id="svg_12"/>
  <g id="svg_13"/>
  <g id="svg_14"/>
  <g id="svg_15"/>
  <g id="svg_16"/>
  <g id="svg_17"/>
  <g id="svg_18"/>
  <g id="svg_19"/>
  <g id="svg_20"/>
  <g id="svg_21"/>
 </g>
</svg>