<svg width="402.122" height="402.122" xmlns="http://www.w3.org/2000/svg">

 <g>
  <title>background</title>
  <rect fill="none" id="canvas_background" height="514.001" width="514.001" y="-1" x="-1"/>
 </g>
 <g>
  <title>Layer 1</title>
  <g id="svg_1">
   <g id="Guides_For_Artboard_35_"/>
   <g id="Artwork_34_"/>
   <g id="Layer_2_34_">
    <g id="svg_2">
     <path id="svg_3" fill="#ffffff" d="m160.713,6.974c-6.931,-6.021 -23.389,-15.699 -26.083,9.367c-9.673,64.829 -79.324,110.136 -79.324,174.054c0,53.879 43.678,97.557 97.558,97.557c53.879,0 97.557,-43.678 97.557,-97.557c-0.001,-48.885 -19.622,-122.537 -89.708,-183.421zm-46.006,235.164c-1.511,2.022 -3.824,3.092 -6.164,3.092c-1.584,0 -3.181,-0.489 -4.554,-1.505c-0.858,-0.636 -21.076,-15.899 -25.434,-44.748c-4.357,-28.843 15.175,-55.873 16.009,-57.01c2.51,-3.423 7.322,-4.166 10.748,-1.652c3.42,2.51 4.162,7.314 1.659,10.739c-0.253,0.349 -16.599,23.194 -13.209,45.627c3.378,22.368 19.246,34.584 19.406,34.705c3.378,2.552 4.074,7.363 1.539,10.752z"/>
     <path id="svg_4" fill="#ffffff" d="m113.169,231.386c-0.16,-0.121 -16.028,-12.337 -19.406,-34.705c-3.39,-22.433 12.956,-45.278 13.209,-45.627c2.503,-3.425 1.761,-8.229 -1.659,-10.739c-3.426,-2.513 -8.238,-1.771 -10.748,1.652c-0.834,1.137 -20.366,28.167 -16.009,57.01c4.357,28.849 24.575,44.112 25.434,44.748c1.373,1.016 2.97,1.505 4.554,1.505c2.34,0 4.653,-1.069 6.164,-3.092c2.534,-3.389 1.838,-8.2 -1.539,-10.752z"/>
     <path id="svg_5" fill="#ffffff" d="m295.623,241.773c-3.956,-3.437 -13.348,-8.96 -14.885,5.346c-5.52,36.996 -45.27,62.852 -45.27,99.328c0,30.748 24.927,55.675 55.676,55.675c30.747,0 55.672,-24.927 55.672,-55.675c0,-27.897 -11.197,-69.929 -51.193,-104.674zm-26.255,134.203c-0.862,1.154 -2.181,1.765 -3.518,1.765c-0.903,0 -1.815,-0.279 -2.599,-0.859c-0.49,-0.363 -12.028,-9.074 -14.514,-25.537c-2.486,-16.46 8.66,-31.886 9.135,-32.534c1.433,-1.954 4.18,-2.377 6.134,-0.943c1.952,1.433 2.376,4.174 0.948,6.128c-0.146,0.2 -9.474,13.237 -7.539,26.039c1.929,12.765 10.982,19.737 11.075,19.806c1.927,1.455 2.324,4.201 0.878,6.135z"/>
     <path id="svg_6" fill="#ffffff" d="m268.491,369.84c-0.093,-0.069 -9.146,-7.041 -11.075,-19.806c-1.935,-12.801 7.393,-25.839 7.539,-26.039c1.428,-1.954 1.004,-4.696 -0.948,-6.128c-1.954,-1.434 -4.701,-1.011 -6.134,0.943c-0.475,0.648 -11.621,16.074 -9.135,32.534c2.485,16.463 14.023,25.174 14.514,25.537c0.783,0.58 1.695,0.859 2.599,0.859c1.337,0 2.655,-0.61 3.518,-1.765c1.445,-1.933 1.048,-4.679 -0.878,-6.135z"/>
    </g>
   </g>
  </g>
  <g id="svg_7"/>
  <g id="svg_8"/>
  <g id="svg_9"/>
  <g id="svg_10"/>
  <g id="svg_11"/>
  <g id="svg_12"/>
  <g id="svg_13"/>
  <g id="svg_14"/>
  <g id="svg_15"/>
  <g id="svg_16"/>
  <g id="svg_17"/>
  <g id="svg_18"/>
  <g id="svg_19"/>
  <g id="svg_20"/>
  <g id="svg_21"/>
 </g>
</svg>